<svg width="165" height="197" viewBox="0 0 165 197" fill="none" xmlns="http://www.w3.org/2000/svg">
<g clip-path="url(#clip0_2_2)">
<path d="M79.5 148.398C77.3598 148.398 75.5369 147.815 74.0312 146.651C72.5256 145.476 71.375 143.777 70.5795 141.551C69.7841 139.316 69.3864 136.617 69.3864 133.455C69.3864 130.311 69.7841 127.626 70.5795 125.401C71.3845 123.166 72.5398 121.461 74.0455 120.287C75.5606 119.103 77.3788 118.511 79.5 118.511C81.6212 118.511 83.4347 119.103 84.9403 120.287C86.4555 121.461 87.6108 123.166 88.4062 125.401C89.2112 127.626 89.6136 130.311 89.6136 133.455C89.6136 136.617 89.2159 139.316 88.4205 141.551C87.625 143.777 86.4744 145.476 84.9688 146.651C83.4631 147.815 81.6402 148.398 79.5 148.398ZM79.5 145.273C81.6212 145.273 83.2689 144.25 84.4432 142.205C85.6174 140.159 86.2045 137.242 86.2045 133.455C86.2045 130.936 85.9347 128.791 85.3949 127.02C84.8646 125.249 84.0975 123.9 83.0938 122.972C82.0994 122.044 80.9015 121.58 79.5 121.58C77.3977 121.58 75.7547 122.616 74.571 124.69C73.3873 126.755 72.7955 129.676 72.7955 133.455C72.7955 135.973 73.0606 138.114 73.5909 139.875C74.1212 141.636 74.8835 142.976 75.8778 143.895C76.8816 144.813 78.089 145.273 79.5 145.273Z" fill="#FFF3EE"/>
<path d="M81.9 11.5C63.1 11.5 47.8 27.5 47.8 47.2V65.3H55.6V47.2C55.6 31.8 67.4 19.3 82 19.3C96.5 19.3 108.4 31.8 108.4 47.2V65.3H115V64H116.1V47.2C116 27.5 100.7 11.5 81.9 11.5Z" fill="#FFF3EE"/>
<path d="M156.9 70.5V188.5H8V70.5H156.9ZM164.9 62.5H0V196.5H164.9V62.5Z" fill="#FFF3EE"/>
</g>
<defs>
<clipPath id="clip0_2_2">
<rect width="164.9" height="196.4" fill="white"/>
</clipPath>
</defs>
</svg>
