<svg width="165" height="197" viewBox="0 0 165 197" fill="none" xmlns="http://www.w3.org/2000/svg">
<g clip-path="url(#clip0_2_2)">
<path d="M84 135.319C83.358 135.319 82.8111 135.145 82.3594 134.795C81.9077 134.443 81.5625 133.933 81.3239 133.265C81.0852 132.595 80.9659 131.785 80.9659 130.836C80.9659 129.893 81.0852 129.088 81.3239 128.42C81.5653 127.75 81.9119 127.238 82.3636 126.886C82.8182 126.531 83.3636 126.353 84 126.353C84.6364 126.353 85.1804 126.531 85.6321 126.886C86.0866 127.238 86.4332 127.75 86.6719 128.42C86.9134 129.088 87.0341 129.893 87.0341 130.836C87.0341 131.785 86.9148 132.595 86.6761 133.265C86.4375 133.933 86.0923 134.443 85.6406 134.795C85.1889 135.145 84.642 135.319 84 135.319ZM84 134.382C84.6364 134.382 85.1307 134.075 85.483 133.461C85.8352 132.848 86.0114 131.973 86.0114 130.836C86.0114 130.081 85.9304 129.437 85.7685 128.906C85.6094 128.375 85.3793 127.97 85.0781 127.691C84.7798 127.413 84.4205 127.274 84 127.274C83.3693 127.274 82.8764 127.585 82.5213 128.207C82.1662 128.826 81.9886 129.703 81.9886 130.836C81.9886 131.592 82.0682 132.234 82.2273 132.762C82.3864 133.291 82.6151 133.693 82.9134 133.968C83.2145 134.244 83.5767 134.382 84 134.382Z" fill="#FFF3EE"/>
<path d="M81.9 11.5C63.1 11.5 47.8 27.5 47.8 47.2V65.3H55.6V47.2C55.6 31.8 67.4 19.3 82 19.3C96.5 19.3 108.4 31.8 108.4 47.2V65.3H115V64H116.1V47.2C116 27.5 100.7 11.5 81.9 11.5Z" fill="#FFF3EE"/>
<path d="M156.9 70.5V188.5H8V70.5H156.9ZM164.9 62.5H0V196.5H164.9V62.5Z" fill="#FFF3EE"/>
</g>
<defs>
<clipPath id="clip0_2_2">
<rect width="164.9" height="196.4" fill="white"/>
</clipPath>
</defs>
</svg>
