<svg preserveAspectRatio="xMidYMid meet" data-bbox="20 20 160 160" viewBox="20 20 160 160" height="200" width="200" xmlns="http://www.w3.org/2000/svg" data-type="color" role="presentation" aria-hidden="true" aria-label=""><defs><style>#comp-kybnzmoz svg [data-color="1"] {fill: #FFF3EE;}
#comp-kybnzmoz svg [data-color="2"] {fill: #E8623D;}
#comp-kybnzmoz svg [data-color="3"] {fill: #C9A9D5;}</style></defs>
    <g>
        <path fill="#fff3ee" d="M175.7 100.6c0 41.642-33.758 75.4-75.4 75.4s-75.4-33.758-75.4-75.4 33.758-75.4 75.4-75.4 75.4 33.758 75.4 75.4z" data-color="1"></path>
        <path d="M100 180c-44.1 0-80-35.9-80-80s35.9-80 80-80 80 35.9 80 80-35.9 80-80 80zm0-152.6C60 27.4 27.4 60 27.4 100S60 172.6 100 172.6s72.6-32.6 72.6-72.6S140 27.4 100 27.4z" fill="#e8623d" data-color="2"></path>
        <path d="M79.7 100.6c-52 20.2-43.8 38.6 6.2 15-23.5 50-5.2 58.2 15 6.2 20.2 52 38.6 43.8 15-6.2 50 23.5 58.2 5.2 6.2-15 52-20.2 43.8-38.6-6.2-15 23.5-50 5.2-58.2-15-6.2-20.2-52-38.6-43.8-15 6.2-50-23.5-58.2-5.2-6.2 15z" fill="#c9a9d5" data-color="3"></path>
    </g>
</svg>