<svg preserveAspectRatio="xMidYMid meet" data-bbox="20 20 160 160" viewBox="20 20 160 160" height="200" width="200" xmlns="http://www.w3.org/2000/svg" data-type="color" role="presentation" aria-hidden="true" aria-label=""><defs><style>#comp-kybo1tv4 svg [data-color="1"] {fill: #014D3B;}
#comp-kybo1tv4 svg [data-color="2"] {fill: #E8623D;}
#comp-kybo1tv4 svg [data-color="3"] {fill: #000000;}</style></defs>
    <g>
        <path fill="#014d3b" d="M176 100c0 41.642-33.758 75.4-75.4 75.4S25.2 141.642 25.2 100s33.758-75.4 75.4-75.4S176 58.358 176 100z" data-color="1"></path>
        <path d="M100 180c-44.1 0-80-35.9-80-80s35.9-80 80-80 80 35.9 80 80-35.9 80-80 80zm0-152.6C60 27.4 27.4 60 27.4 100S60 172.6 100 172.6s72.6-32.6 72.6-72.6S140 27.4 100 27.4z" fill="#e8623d" data-color="2"></path>
        <path d="M100 43c-32.2 0-58.3 25.6-58.3 57s26.2 57 58.3 57 58.3-25.6 58.3-57-26.1-57-58.3-57zm20.6 55c-.1-7.3-.7-14.6-1.7-21.4 3.9-.9 7.8-2.1 11.7-3.5 2.9 7.4 4.7 15.9 4.9 25h-14.9zm-37.2 0c.1-7.5.7-14.4 1.7-20.6 5 .9 9.9 1.4 14.9 1.4h.3c4.9 0 9.8-.5 14.7-1.4 1 6.2 1.6 13.1 1.7 20.6H83.4zm33.2 4c-.1 7.9-.7 15.1-1.8 21.5-5.1-.8-10.2-1.3-15.4-1.3-4.8 0-9.5.5-14.2 1.3-1.1-6.4-1.7-13.6-1.8-21.5h33.2zm1.6-29.4c-1.8-9.8-4.7-18.2-8.6-23.6 7.9 3.3 14.7 10.6 19.3 20.3-3.5 1.3-7.1 2.4-10.7 3.3zm-3.9.8c-4.6.8-9.3 1.3-14 1.3h-.3c-4.8 0-9.5-.5-14.3-1.3C88.9 57.1 94.6 47 100 47s11.1 10.1 14.3 26.4zm-32.5-.8c-3.6-.8-7.2-1.9-10.7-3.3 4.6-9.7 11.4-17 19.3-20.3-3.9 5.4-6.7 13.8-8.6 23.6zm-.7 4C80 83.4 79.4 90.8 79.4 98H64.5c.2-9.1 2-17.6 4.9-25 3.9 1.5 7.8 2.7 11.7 3.6zM60.5 98H45.8c.4-11.5 4.6-22 11.4-30.5 2.8 1.5 5.6 2.9 8.5 4.1-3.1 7.8-5 16.8-5.2 26.4zm0 4c.2 9.8 2.2 18.9 5.4 26.8-2.9 1.1-5.8 2.4-8.6 3.8-6.8-8.5-11-19.1-11.5-30.6h14.7zm4 0h14.8c.1 7.6.7 15.2 1.9 22.3-3.9.8-7.7 1.9-11.6 3.2-3-7.5-4.8-16.2-5.1-25.5zM82 128.2c1.9 9.4 4.7 17.5 8.4 22.7-7.8-3.3-14.4-10.3-19.1-19.8 3.5-1.1 7.1-2.1 10.7-2.9zm3.9-.7c4.5-.7 9-1.2 13.5-1.2h.6c4.7 0 9.4.4 14.1 1.2-3.2 15.8-8.8 25.5-14.1 25.5-5.3 0-10.9-9.7-14.1-25.5zm32.1.8c3.6.8 7.1 1.7 10.6 2.9-4.6 9.5-11.3 16.5-19.1 19.8 3.9-5.2 6.7-13.3 8.5-22.7zm.8-4c1.2-7.1 1.8-14.7 1.9-22.3h14.8c-.2 9.3-2.1 18-5.1 25.5-3.9-1.3-7.8-2.4-11.6-3.2zm20.7-22.3h14.7c-.4 11.5-4.7 22.1-11.5 30.6-2.9-1.4-5.7-2.7-8.6-3.8 3.2-7.9 5.2-17 5.4-26.8zm0-4c-.2-9.6-2.1-18.6-5.3-26.4 2.8-1.2 5.7-2.6 8.5-4.1 6.8 8.5 11 19.1 11.4 30.5h-14.6zm.5-33.7c-2.4 1.3-4.9 2.5-7.4 3.5-3.3-7-7.7-12.9-12.8-17.1 7.8 3 14.7 7.7 20.2 13.6zM80.2 50.7c-5.1 4.3-9.5 10.1-12.8 17.1-2.5-1.1-4.9-2.2-7.4-3.5 5.5-5.9 12.4-10.6 20.2-13.6zm-20.1 85.1c2.5-1.2 5-2.3 7.5-3.3 3.3 6.8 7.6 12.6 12.7 16.8-7.9-3-14.7-7.6-20.2-13.5zm59.7 13.5c5-4.2 9.3-9.9 12.7-16.8 2.5 1 5 2.1 7.5 3.3a54.83 54.83 0 0 1-20.2 13.5z" fill="#000016" data-color="3"></path>
        <path fill="#000016" d="M102.2 43v112.3h-4.4V43h4.4z" data-color="3"></path>
    </g>
</svg>